<?xml version="1.0" standalone="no"?>
<!DOCTYPE svg PUBLIC "-//W3C//DTD SVG 20010904//EN"
 "http://www.w3.org/TR/2001/REC-SVG-20010904/DTD/svg10.dtd">
<svg version="1.0" xmlns="http://www.w3.org/2000/svg"
 width="500.000000pt" height="500.000000pt" viewBox="0 0 500.000000 500.000000"
 preserveAspectRatio="xMidYMid meet">
<metadata>
Created by potrace 1.14, written by Peter Selinger 2001-2017
</metadata>
<g transform="translate(0.000000,500.000000) scale(0.100000,-0.100000)"
fill="#000000" stroke="none">
<path d="M2470 4981 c-14 -10 -45 -29 -70 -43 -25 -13 -63 -35 -85 -49 -22
-13 -57 -33 -77 -44 -21 -11 -93 -52 -160 -91 -140 -81 -563 -326 -611 -353
-66 -38 -143 -82 -157 -91 -13 -8 -142 -82 -280 -161 -52 -30 -334 -193 -430
-249 -36 -21 -109 -63 -163 -95 l-97 -56 2 -1251 3 -1251 250 -144 c138 -80
268 -155 290 -168 22 -12 128 -73 235 -135 107 -62 215 -124 240 -138 25 -13
50 -28 55 -32 6 -4 30 -19 55 -32 44 -25 404 -233 464 -269 17 -10 42 -24 56
-32 14 -7 117 -67 230 -132 113 -65 223 -129 246 -142 l40 -23 101 59 c56 32
107 61 114 65 8 3 95 53 194 111 99 58 244 143 323 188 79 45 157 90 175 101
55 32 491 283 752 434 270 155 358 207 448 259 l57 34 -2 1251 -3 1251 -245
142 c-135 78 -254 146 -265 153 -11 6 -66 38 -123 72 -56 33 -105 60 -108 60
-3 0 -28 15 -57 33 -29 18 -65 40 -82 49 -16 8 -113 64 -215 123 -102 60 -201
117 -220 128 -19 11 -168 96 -330 190 -497 287 -514 297 -520 297 -3 0 -16 -9
-30 -19z m130 -900 c0 -6 -10 -17 -22 -26 -13 -8 -45 -37 -73 -63 -105 -101
-153 -123 -176 -81 -20 38 23 169 55 169 30 0 37 -26 20 -69 -9 -22 -14 -45
-12 -51 1 -5 41 21 88 59 78 64 120 86 120 62z m-322 -511 c59 -36 78 -120 45
-202 -37 -96 -150 -230 -225 -269 -36 -18 -38 -18 -38 -2 0 10 13 32 28 49 53
61 67 79 103 129 48 67 89 153 89 186 0 40 -24 54 -99 55 -170 4 -431 -75
-716 -218 -396 -199 -687 -430 -687 -544 -1 -59 75 -96 330 -163 271 -72 394
-134 452 -229 28 -47 42 -50 97 -22 245 127 576 220 614 173 16 -18 12 -20
-46 -27 -145 -18 -322 -79 -536 -184 l-76 -37 -5 -100 c-4 -79 -11 -112 -32
-159 -96 -215 -344 -436 -547 -488 -99 -26 -157 -9 -188 56 -44 89 22 213 195
366 39 35 58 50 144 113 71 53 268 177 343 216 35 19 34 29 -8 79 -75 87 -181
137 -404 192 -236 58 -314 92 -354 154 -82 125 104 326 529 571 415 240 870
379 992 305z m2029 -36 c23 -23 13 -39 -149 -235 -184 -222 -268 -329 -268
-340 0 -5 46 -10 103 -10 164 -3 159 -2 168 -27 11 -30 -5 -36 -53 -19 -31 11
-175 15 -255 8 -27 -2 -370 -469 -589 -802 -145 -219 -187 -297 -209 -384 -19
-76 -80 -202 -104 -215 -13 -6 -24 -5 -37 4 -17 13 -16 19 28 112 48 102 95
233 104 293 3 18 8 43 11 55 11 47 13 272 3 329 -24 136 -78 249 -158 331 -68
70 -111 91 -180 87 -26 -1 -64 -40 -130 -134 -297 -424 -449 -702 -440 -806 2
-28 -1 -36 -15 -39 -21 -4 -57 24 -57 46 0 15 128 267 159 311 10 14 20 33 23
41 3 8 85 134 183 280 194 291 192 286 81 257 l-56 -15 -6 25 c-4 16 -2 28 7
34 21 14 108 37 159 43 25 3 46 5 47 5 1 1 41 54 89 119 81 108 180 234 343
435 35 43 70 81 78 84 8 3 22 -1 31 -10 19 -20 10 -41 -46 -103 -20 -23 -44
-50 -52 -60 -31 -38 -144 -169 -150 -174 -3 -3 -25 -30 -50 -60 -62 -75 -80
-97 -117 -139 -37 -42 -59 -79 -51 -87 3 -3 73 8 154 25 82 16 177 35 211 41
35 5 75 13 90 15 43 9 134 24 178 30 22 4 78 12 125 20 79 13 108 16 230 30
25 3 52 8 60 10 11 4 188 232 302 390 4 5 18 24 31 40 13 17 43 59 68 95 59
87 74 96 106 64z"/>
<path d="M1465 2185 c-38 -24 -74 -48 -80 -52 -5 -4 -37 -26 -70 -47 -172
-112 -338 -262 -407 -366 -72 -111 -53 -161 58 -154 111 7 223 72 359 209 131
132 142 146 186 239 53 113 70 209 39 213 -8 1 -46 -18 -85 -42z"/>
<path d="M3729 2906 c-2 -2 -29 -6 -59 -10 -96 -11 -124 -15 -160 -22 -19 -4
-48 -8 -65 -10 -16 -2 -82 -14 -145 -25 -63 -12 -124 -23 -135 -24 -11 -2 -56
-11 -100 -20 -44 -9 -91 -18 -105 -21 -14 -2 -38 -7 -55 -11 -16 -4 -35 -8
-41 -9 -28 -5 -54 -16 -54 -22 0 -4 19 -19 43 -34 92 -58 181 -191 221 -329
30 -101 38 -167 37 -301 0 -54 3 -98 7 -98 4 0 45 57 91 128 46 70 145 214
220 320 75 107 143 204 151 215 8 12 35 49 60 82 98 129 129 179 117 187 -13
9 -22 10 -28 4z"/>
</g>
</svg>
