<svg width="183" height="189.974" viewBox="0 0 48.419 50.264" xml:space="preserve" xmlns="http://www.w3.org/2000/svg"><g style="stroke-width:.264583;stroke-dasharray:none" transform="matrix(1.00026 0 0 .9956 -229.83 -80.015)"><circle style="fill:none;stroke:#000;stroke-width:.264583;stroke-dasharray:none;stroke-opacity:1" cx="254.06" cy="105.618" r="11.133"/><circle style="fill:none;stroke:#000;stroke-width:.264583;stroke-dasharray:none;stroke-opacity:1" cx="254.118" cy="100.022" r="2.474"/><circle style="fill:none;stroke:#000;stroke-width:.264583;stroke-dasharray:none;stroke-opacity:1" cx="254.133" cy="112.458" r="2.474"/><path style="fill:none;stroke:#000;stroke-width:.264583;stroke-dasharray:none;stroke-opacity:1" d="M251.88 116.574c-5.98-6.582-2.743-9.195 2.474-10.956 5.93-2.107 8.297-5.231 2.18-10.78M235.858 108.21c1.763.751 4.13.864 3.357 4.3M244.163 118.812c2.329.608 3.674 1.871 3.181 4.36M261.658 125.174c-.894-2.5.37-3.986 2.121-5.242M269.846 112.45c-.341-2.112-.196-4.02 2.415-4.888M268.08 93.13c-2.297 1.002-4.023.064-5.538-1.59M241.984 93.778c.407-2.001 1.177-3.539 3.299-3.358M252.057 128.473c-5.216 4.079-9.075 2.229-11.781-2.474"/><path style="fill:none;stroke:#000;stroke-width:.264583;stroke-dasharray:none;stroke-opacity:1" d="M243.574 125.822c-6.15.95-9.223-2.323-8.777-9.383"/><path style="fill:none;stroke:#000;stroke-width:.264583;stroke-dasharray:none;stroke-opacity:1" d="M239.098 117.458c-3.97.741-15.967-6.827-4.065-16.553"/><path style="fill:none;stroke:#000;stroke-width:.264583;stroke-dasharray:none;stroke-opacity:1" d="M233.174 102.69c-1.893-4.695.145-7.958 2.763-9.543"/><path style="fill:none;stroke:#000;stroke-width:.264583;stroke-dasharray:none;stroke-opacity:1" d="M236.394 95.303c-2.177-7.44 1.034-10.478 8.123-9.595"/><path style="fill:none;stroke:#000;stroke-width:.264583;stroke-dasharray:none;stroke-opacity:1" d="M242.75 85.649c1.844-4.69 4.324-7.373 9.13-2.71M255.532 83.47c3.458-5.21 9.396-2.954 9.602 2.06"/><path style="fill:none;stroke:#000;stroke-width:.264583;stroke-dasharray:none;stroke-opacity:1" d="M263.308 86.061c7.663-2.314 10.346 3.105 8.129 9.13"/><path style="fill:none;stroke:#000;stroke-width:.264583;stroke-dasharray:none;stroke-opacity:1" d="M275 102.815c1.27-3.585.824-7.307-2.907-9.797"/><path style="fill:none;stroke:#000;stroke-width:.264583;stroke-dasharray:none;stroke-opacity:1" d="M272.438 100.905c11.129 6.7 3.395 17.906-3.416 16.612"/><path style="fill:none;stroke:#000;stroke-width:.264583;stroke-dasharray:none;stroke-opacity:1" d="M264.604 125.822c4.72.86 8.582-.23 8.482-8.859"/><path style="fill:none;stroke:#000;stroke-width:.264583;stroke-dasharray:none;stroke-opacity:1" d="M256.121 128.296c3.823 2.508 7.576 3.805 10.78-2.202"/></g></svg>