<svg width="197.885" height="185.931" viewBox="0 0 52.357 49.194" xml:space="preserve" xmlns="http://www.w3.org/2000/svg"><g transform="matrix(1.06194 0 0 1.06047 82.505 -87.758)" style="stroke-width:.249324;stroke-dasharray:none"><path style="fill:none;stroke:#000;stroke-width:.249324;stroke-dasharray:none;stroke-opacity:1" d="M-60 94c1.343-3.327 1.3-6.145 7.058-11.09C-49.721 85.018-47.342 88.6-46 94M-46.244 97.07c3.172-2.468 6.169-5.68 9.93-5.64 1.967 4.464.64 7.752.647 11.516M-41.073 105.59c4.1-.448 8.12-1.48 12.516.294-1.764 3.86-4.66 6.5-8.461 8.168M-59.64 96.894c-3.04-2.525-6.145-4.927-10.107-5.758-1.24 3.563-.732 7.477-.47 11.34M-64.694 105.826l-12.692-.118 8.638 8.52M-59.23 118.459c2.455-1.547.87-3.095.412-4.642-1.09 1.85-1.593 3.602-6.287 6.052-3.925 1.55-4.58-2.22-3.173-3.408 1.963-2.002 4.959-.909 5.23-7.991.008-1.48 1.862-4.38 4.289-4.466l11.516-.176c1.53.046 4.085 1.382 4.231 3.467.254 1.978.331 3.956 1.175 5.934.42.785 2.547 2.155 3.82 3.232 2.623 1.81.213 4.818-1.88 3.878-2.804-1.8-5.32-3.756-6.112-6.64-1.913 1.133-1.983 2.746-.293 4.819M-57.467 121.162c-1.3 2.527 3.219 1.26 5.112 1.704M-65.752 122.572c-1.573 6.045 6.978 2.81 10.577 4.113M-45.186 122.455l-5.347 2.232c-3.395.89-2.638 5.032 1.058 4.231l8.637-2.997c2.371-1.018 3.094-2.115 2.174-3.29"/><ellipse style="fill:none;stroke:#000;stroke-width:.249324;stroke-dasharray:none;stroke-opacity:1" cx="-52.766" cy="96.512" rx="4.289" ry="5.024"/></g></svg>