<?xml version="1.0" encoding="UTF-8" standalone="no"?>
<!-- Created with Inkscape (http://www.inkscape.org/) -->

<svg
   width="87.312492mm"
   height="79.375mm"
   viewBox="0 0 87.312492 79.375"
   version="1.1"
   id="svg1"
   xml:space="preserve"
   xmlns:inkscape="http://www.inkscape.org/namespaces/inkscape"
   xmlns:sodipodi="http://sodipodi.sourceforge.net/DTD/sodipodi-0.dtd"
   xmlns="http://www.w3.org/2000/svg"
   xmlns:svg="http://www.w3.org/2000/svg"><sodipodi:namedview
     id="namedview1"
     pagecolor="#ffffff"
     bordercolor="#000000"
     borderopacity="0.25"
     inkscape:showpageshadow="2"
     inkscape:pageopacity="0.0"
     inkscape:pagecheckerboard="0"
     inkscape:deskcolor="#d1d1d1"
     inkscape:document-units="mm" /><defs
     id="defs1" /><g
     inkscape:label="Vrstva 1"
     inkscape:groupmode="layer"
     id="layer1"
     transform="translate(-4.0618506,-9.9371841)"><path
       d="m 34.005714,89.237484 c -9.949044,-0.62649 -15.165047,-1.56622 -20.405199,-3.61435 -6.4475602,-2.55413 -9.5626732,-6.28896 -9.5385252,-11.5418 0.02415,-2.60233 0.748594,-4.67456 2.463113,-6.96364 2.5597054,-3.42158 6.7856342,-5.541995 17.6281602,-8.79491 l 3.863705,-1.156591 -3.54978,-1.734885 c -6.713189,-3.228815 -9.272895,-5.758857 -9.297043,-9.180438 0,-4.289022 5.095263,-8.409376 14.005936,-11.349044 4.684744,-1.518025 6.109486,-1.783076 13.040008,-2.385468 13.933492,-1.180686 21.685053,-2.626424 25.234832,-4.698649 2.197484,-1.277068 4.926226,-4.57817 5.457485,-6.650395 0.579557,-2.168608 -0.79689,-4.192642 -3.887854,-5.758858 -4.588152,-2.313181 -9.490229,-3.879397 -13.595417,-4.36131 -9.99734,-1.1565905 -23.713497,3.349294 -25.041646,8.240708 -0.410519,1.445738 -0.144889,3.662537 0.627853,5.228754 0.821037,1.662598 2.414816,3.277006 4.877929,4.867318 1.811112,1.15659 2.463113,1.927651 1.690371,1.927651 -0.603703,0 -4.201781,-2.530042 -5.529929,-3.879398 -1.956002,-1.975842 -2.704594,-3.63844 -2.825336,-6.216674 -0.07244,-1.999938 -0.04829,-2.120415 0.724446,-3.397485 2.22163,-3.686633 10.166376,-6.915448 18.956309,-7.758795 6.350966,-0.6023905 13.595415,1.036112 20.646679,4.674553 5.505782,2.843286 5.964593,6.554014 1.424742,11.349045 -2.414816,2.530042 -5.481632,3.999876 -10.359562,5.011893 -0.821038,0.168669 -1.497186,0.38553 -1.497186,0.481912 0,0.313244 2.318224,0.698774 6.375116,1.060209 5.868003,0.554199 9.876594,1.397546 13.426378,2.795094 4.177631,1.662598 7.872305,4.722744 9.417784,7.831081 0.772744,1.518025 0.845184,1.831268 0.845184,3.831206 0,1.927651 -0.07247,2.337276 -0.748594,3.734824 -1.400591,2.86738 -4.008592,5.228752 -7.944744,7.108212 -4.805487,2.313184 -7.630819,2.891479 -14.247416,2.891479 -5.698967,0 -6.520005,-0.120477 -16.903715,-2.168607 -12.194823,-2.433662 -15.068454,-2.433662 -23.54446,0 -5.578226,1.590312 -10.069785,3.204721 -13.040009,4.650458 -6.6407453,3.25291 -9.3453392,9.66235 -6.5441532,15.61397 1.3522981,2.89147 4.1534852,4.86732 9.4177842,6.69858 3.139262,1.0843 7.220302,1.92766 12.098231,2.48186 3.042669,0.33733 5.940448,0.40962 15.696307,0.40962 12.846823,0.0241 16.106825,-0.16867 24.703572,-1.42164 10.745929,-1.56622 15.503116,-3.01195 19.415119,-5.92753 3.066818,-2.28908 3.718823,-6.31305 1.521339,-9.49367 -1.666228,-2.40957 -6.689043,-5.27695 -12.701932,-7.2287 -3.936154,-1.27706 -6.08534,-2.578227 -5.191857,-3.108337 0.12074,-0.09638 0.531258,0.09639 0.91763,0.409624 1.014223,0.843355 1.545482,1.084308 4.757185,2.144523 7.244449,2.36136 12.460453,5.73475 13.981792,9.05995 0.772735,1.71079 0.724445,4.33722 -0.12074,5.95163 -1.521339,2.86737 -5.385042,5.25284 -10.914973,6.74677 -4.564003,1.20478 -12.025786,2.40956 -19.825643,3.15653 -3.622225,0.36144 -22.3612,0.65058 -25.959276,0.43372 z M 73.367221,59.623948 c 6.326822,-1.421642 12.170672,-5.13237 14.054228,-8.987672 0.700296,-1.421642 0.796895,-1.831268 0.796895,-3.542058 0,-1.638504 -0.12074,-2.144512 -0.748595,-3.493867 -1.738668,-3.662537 -5.505781,-6.481726 -11.035712,-8.288899 -2.777038,-0.915634 -6.206077,-1.518025 -10.721784,-1.951746 -2.318223,-0.216861 -4.998669,-0.602391 -6.037041,-0.891539 -2.245779,-0.626486 -2.89778,-0.626486 -6.83393,-0.120478 -1.666224,0.216861 -6.06119,0.674677 -9.780006,1.012017 -8.210376,0.722869 -8.645043,0.819251 -13.233195,2.313181 -4.564003,1.469833 -7.461783,2.891476 -9.949044,4.867318 -3.912002,3.084241 -4.660595,5.831144 -2.48726,9.035863 1.279852,1.855364 4.877929,4.096259 10.359563,6.457631 1.714519,0.722869 1.931852,0.746965 2.897779,0.506008 1.44889,-0.361434 9.07971,-0.337339 11.446231,0.04819 1.062518,0.16867 4.877928,0.891539 8.451856,1.590312 3.598076,0.722865 7.654968,1.469831 9.055562,1.6626 3.40489,0.481915 11.204748,0.361429 13.764453,-0.216866 z"
       id="path1-3"
       style="stroke-width:0.241218"
       inkscape:export-filename="minimalism.svg"
       inkscape:export-xdpi="96"
       inkscape:export-ydpi="96" /></g></svg>
