<?xml version="1.0" encoding="UTF-8" standalone="no"?>
<!-- Created with Inkscape (http://www.inkscape.org/) -->

<svg
   width="78.316666mm"
   height="79.375mm"
   viewBox="0 0 78.316666 79.375"
   version="1.1"
   id="svg1"
   xml:space="preserve"
   xmlns:inkscape="http://www.inkscape.org/namespaces/inkscape"
   xmlns:sodipodi="http://sodipodi.sourceforge.net/DTD/sodipodi-0.dtd"
   xmlns="http://www.w3.org/2000/svg"
   xmlns:svg="http://www.w3.org/2000/svg"><sodipodi:namedview
     id="namedview1"
     pagecolor="#ffffff"
     bordercolor="#000000"
     borderopacity="0.25"
     inkscape:showpageshadow="2"
     inkscape:pageopacity="0.0"
     inkscape:pagecheckerboard="0"
     inkscape:deskcolor="#d1d1d1"
     inkscape:document-units="mm" /><defs
     id="defs1" /><g
     inkscape:label="Vrstva 1"
     inkscape:groupmode="layer"
     id="layer1"
     transform="translate(-107.82544,-153.95962)"><path
       d="m 132.96238,233.04246 c -0.19934,-0.5095 -0.11076,-0.55381 1.48397,-0.81963 2.03771,-0.33228 5.11643,-1.3956 7.35347,-2.56968 1.06316,-0.57595 1.92697,-1.08546 1.92697,-1.15192 0,-0.0665 -0.53158,-0.42089 -1.19605,-0.75317 -2.68003,-1.41775 -8.74886,-5.13934 -10.96375,-6.73431 -2.70218,-1.97156 -8.7267,-7.62041 -11.78326,-11.05402 -5.5594,-6.24696 -8.46092,-11.31985 -10.27712,-17.9434 -2.10417,-7.64256 -2.23707,-14.06674 -0.37655,-18.65227 1.72762,-4.20894 5.04997,-7.08875 9.01465,-7.81977 5.53724,-1.01902 13.33368,3.50006 18.95952,10.98756 0.88597,1.17407 1.66118,2.03801 1.74977,1.9494 0.0665,-0.0886 0.42084,-0.9304 0.77522,-1.83864 1.72762,-4.652 4.82848,-9.8578 7.6414,-12.91482 5.95808,-6.42418 15.72579,-10.50021 23.1457,-9.65842 7.73,0.86395 12.93501,5.87037 15.10561,14.50979 0.55373,2.21523 0.62018,2.76904 0.62018,6.62354 0,3.61083 -0.0665,4.54123 -0.50942,6.49064 -0.73093,3.23424 -1.83839,6.29126 -3.566,9.90209 -3.80963,7.88624 -8.32802,13.95598 -16.16877,21.66499 -4.20831,4.14249 -4.23045,4.16465 -3.92036,4.76276 0.66447,1.30699 1.50613,4.14249 1.66117,5.64885 0.24364,2.17092 -0.0443,4.36401 -0.77521,5.67099 -1.10745,2.06017 -2.3921,2.56968 -6.29032,2.54753 -3.16731,-0.0222 -4.62914,-0.31014 -8.12868,-1.63928 -1.30679,-0.48735 -2.70218,-0.88609 -3.123,-0.88609 -0.44299,0 -1.24035,0.28798 -1.99341,0.73102 -2.76863,1.61712 -6.26817,2.85766 -8.9482,3.16779 -1.0853,0.13291 -1.30679,0.0886 -1.41753,-0.22153 z m 27.64194,-2.85765 c 2.52498,-1.4842 3.2559,-5.42732 1.81622,-9.85779 -0.97456,-3.01271 -0.79737,-2.96841 -2.96797,-1.10762 -2.56928,2.14878 -5.20501,4.09819 -9.47977,6.93369 -2.30349,1.55066 -3.49954,2.4589 -3.32234,2.56967 0.62016,0.33228 4.3412,1.59497 5.60369,1.88294 0.84166,0.17723 2.39209,0.28799 4.31905,0.24369 2.83507,-0.0443 3.05656,-0.0886 4.03112,-0.66458 z m -11.58392,-4.7406 c 6.15741,-4.09818 11.76111,-8.46219 11.76111,-9.14892 0,-0.97469 -3.14516,-5.60453 -6.7776,-9.9907 -1.81621,-2.19308 -7.13197,-7.73117 -7.39776,-7.73117 -0.0886,0 -0.22148,0.48735 -0.28793,1.08547 -0.1772,1.4842 -0.90811,2.85765 -1.59473,3.03487 -1.28464,0.33228 -3.03441,-0.84179 -4.4741,-2.94626 -1.1296,-1.70573 -1.77192,-3.36716 -2.25919,-5.91468 l -0.35439,-1.97156 -2.10415,-1.32914 c -4.5184,-2.85765 -9.65696,-5.18365 -13.62163,-6.1805 -1.66117,-0.39874 -2.61358,-0.48736 -5.75873,-0.5095 -2.05986,0 -4.03112,0.0665 -4.36336,0.17721 -0.48728,0.13292 -0.64232,0.0665 -0.84165,-0.31013 -0.15505,-0.24368 -0.2215,-0.48735 -0.17721,-0.55381 0.0443,-0.0443 1.19605,-0.17722 2.52499,-0.28798 6.62255,-0.57596 13.35584,1.41775 21.21873,6.26912 1.24035,0.77533 2.43639,1.50635 2.68004,1.61712 0.42082,0.24367 0.44297,0.15506 0.48727,-2.92411 0.0222,-1.72788 0.19934,-4.1868 0.39868,-5.42733 l 0.33224,-2.28169 -0.70877,-1.12977 c -1.32894,-2.06016 -4.14186,-5.38301 -5.73659,-6.75646 -3.123,-2.70258 -6.60039,-4.71845 -9.41332,-5.44948 -4.2526,-1.10761 -8.46091,0.64243 -11.11879,4.65199 -3.3002,4.89567 -3.47739,11.89581 -0.57588,21.66499 1.01886,3.45577 2.4807,6.51279 4.67344,9.79134 4.49624,6.66785 12.18194,14.35472 19.00384,18.94025 1.50612,1.01901 10.25498,6.1805 10.49862,6.20266 0.0443,0 1.83836,-1.17408 3.98682,-2.59183 z m 17.07686,-13.95597 c 5.07213,-5.11719 7.46421,-7.97484 10.52078,-12.58253 5.27146,-7.93054 7.88504,-14.44333 8.52736,-21.31055 0.57587,-6.22481 -1.17389,-13.06989 -4.36335,-17.013 -3.89823,-4.82922 -10.58723,-6.69001 -17.60846,-4.89567 -10.91944,2.76904 -18.93738,10.63313 -22.99065,22.57324 l -0.59802,1.75003 1.41754,2.45891 c 2.30349,4.03173 4.40765,8.63941 5.07212,11.09832 0.15504,0.59812 0.35438,1.79434 0.44299,2.65828 l 0.15503,1.57282 3.16731,3.25639 c 4.76203,4.87352 9.34687,10.8325 10.74226,13.91167 0.26579,0.59812 0.59802,1.10762 0.73092,1.10762 0.13289,0 2.28134,-2.06016 4.78417,-4.58553 z m -21.21873,-10.69958 c 0.22149,-0.4209 0.44299,-1.32914 0.53158,-2.01587 l 0.13289,-1.24052 -1.61687,-1.32914 c -1.88267,-1.52852 -4.91708,-3.63299 -5.04998,-3.50008 -0.17719,0.17722 0.46514,2.90196 1.01886,4.25325 0.99671,2.48106 3.07871,4.82922 4.16401,4.67415 0.24364,-0.0443 0.59803,-0.39874 0.81951,-0.84179 z m 0.3101,-6.5571 c -0.17721,-0.84178 -0.84168,-2.74689 -1.48399,-4.25325 -1.24035,-2.90196 -3.96467,-8.06345 -4.34121,-8.17421 -0.28793,-0.11076 -0.73091,4.29756 -0.73091,7.37673 v 2.43676 l 1.83836,1.26268 c 0.99671,0.68672 2.52499,1.81649 3.36665,2.54752 1.79407,1.50636 1.90481,1.41775 1.3511,-1.19623 z"
       id="path1-9"
       style="stroke-width:0.221506" /></g></svg>
