<?xml version="1.0" encoding="UTF-8" standalone="no"?>
<!-- Created with Inkscape (http://www.inkscape.org/) -->

<svg
   width="102.65834mm"
   height="79.375008mm"
   viewBox="0 0 102.65834 79.375008"
   version="1.1"
   id="svg1"
   xml:space="preserve"
   xmlns:inkscape="http://www.inkscape.org/namespaces/inkscape"
   xmlns:sodipodi="http://sodipodi.sourceforge.net/DTD/sodipodi-0.dtd"
   xmlns="http://www.w3.org/2000/svg"
   xmlns:svg="http://www.w3.org/2000/svg"><sodipodi:namedview
     id="namedview1"
     pagecolor="#ffffff"
     bordercolor="#000000"
     borderopacity="0.25"
     inkscape:showpageshadow="2"
     inkscape:pageopacity="0.0"
     inkscape:pagecheckerboard="0"
     inkscape:deskcolor="#d1d1d1"
     inkscape:document-units="mm" /><defs
     id="defs1" /><g
     inkscape:label="Vrstva 1"
     inkscape:groupmode="layer"
     id="layer1"
     transform="translate(-84.874544,-19.784086)"><path
       d="m 114.04697,98.85729 c -7.15266,-1.179406 -14.1873,-5.330895 -15.580062,-9.222929 -0.897033,-2.571094 -0.259667,-5.849831 1.558012,-7.831227 1.51079,-1.603987 2.47865,-2.004984 5.24056,-2.122924 2.85635,-0.11794 6.46809,0.566113 15.67449,2.924917 3.28126,0.825582 6.04318,1.462459 6.114,1.415283 0.0472,-0.07076 -0.14163,-0.518937 -0.42491,-1.014286 -2.21897,-3.774087 -3.54093,-9.246513 -4.39075,-18.280734 -0.33047,-3.656147 -0.35408,-4.481728 -0.0945,-4.788373 0.16524,-0.212292 0.40131,-0.283056 0.51934,-0.165117 0.0945,0.09435 0.35409,1.887044 0.54293,3.962792 0.7554,7.972759 1.65244,12.478076 3.18684,16.134222 0.99146,2.311628 2.26619,4.410965 2.90356,4.764785 0.77901,0.400996 6.09038,0.542525 7.672,0.188704 3.56453,-0.778405 6.56251,-3.113622 8.14413,-6.368772 1.58161,-3.207973 3.13962,-10.685384 3.39929,-16.27575 0.14164,-2.948505 0.25967,-3.514618 0.84982,-3.538207 0.0945,0 0.16525,0.872759 0.16525,1.957808 0,1.93422 0,1.93422 0.77899,2.28804 0.61377,0.283057 0.84983,0.636877 1.36916,2.028572 0.92064,2.547509 2.03013,4.316612 3.75339,5.991364 3.35207,3.278738 7.10545,4.646844 14.84826,5.425249 3.65896,0.353821 9.9382,0.306645 9.9382,-0.07076 0,-0.471761 -0.47212,-0.96711 -1.72325,-1.792691 -1.84127,-1.250167 -3.61173,-1.910632 -7.88445,-2.972094 -4.81566,-1.20299 -6.42088,-1.981396 -8.59265,-4.127907 -2.52586,-2.500338 -3.39929,-4.623262 -5.02811,-12.10067 -1.43997,-6.769769 -3.18683,-8.137876 -12.95979,-10.213624 -2.21898,-0.47176 -4.46156,-1.014286 -5.0045,-1.20299 -2.05374,-0.731229 -2.90357,-0.754817 -4.36714,-0.165116 -0.7554,0.306644 -3.21044,0.919934 -5.42942,1.368106 -3.35207,0.684054 -4.41435,0.990698 -6.20842,1.887044 -3.68256,1.792691 -5.83072,3.962791 -7.60119,7.571762 -0.59015,1.20299 -1.25113,3.090033 -1.53439,4.363787 -1.03867,4.505316 -1.46359,5.826247 -2.50226,7.996347 -0.84982,1.769104 -1.41637,2.547509 -2.76193,3.892027 -2.14814,2.122924 -3.895,2.995682 -8.14412,4.057144 -4.154683,1.037874 -4.013045,0.990698 -9.89098,3.184386 -5.004506,1.863455 -5.854328,2.099336 -5.689085,1.580398 0.188849,-0.542524 10.292287,-4.127907 14.588609,-5.189369 4.036646,-0.96711 6.043176,-1.957808 8.002486,-3.939204 2.64389,-2.665448 3.65896,-4.859136 4.95729,-10.614619 1.1331,-5.000664 3.09242,-8.656811 5.97236,-11.062792 2.59669,-2.1701 5.66548,-3.443854 10.62278,-4.387376 1.74686,-0.330233 3.61175,-0.754818 4.10747,-0.943521 0.77901,-0.283057 0.84982,-0.353821 0.44852,-0.495349 -0.25966,-0.07076 -1.36916,-0.589702 -2.43144,-1.108639 -5.40581,-2.66545 -7.88445,-8.114288 -6.53891,-14.388707 0.70819,-3.349503 1.86489,-4.882725 4.74485,-6.250832 2.43144,-1.155814 5.09893,-1.651163 7.2943,-1.32093 3.39929,0.495349 6.1376,2.264452 7.41234,4.811961 0.99145,1.981396 1.27473,3.632558 1.1567,6.816944 -0.0709,2.405981 -0.16525,2.924917 -0.73179,4.057144 -0.779,1.580399 -3.51732,4.410965 -5.68909,5.873423 -0.84982,0.566113 -1.5344,1.085051 -1.55801,1.155815 0,0.165116 5.02812,1.486047 8.49823,2.240864 4.06025,0.872758 6.32645,1.651163 8.0733,2.806977 2.59668,1.698339 3.54092,3.656147 4.81566,9.789038 1.10948,5.401662 2.6911,8.562459 5.35859,10.685383 1.72326,1.368107 3.13962,1.93422 7.48317,2.995682 5.07532,1.250166 9.13558,3.207974 9.70213,4.694021 0.30688,0.778405 1.58161,1.226578 3.56453,1.226578 1.9357,0 2.78552,0.165116 2.78552,0.542525 0,0.35382 -5.0045,0.02359 -6.06678,-0.424585 -0.779,-0.330233 -0.89704,-0.330233 -1.06227,0 -0.44852,0.778405 -11.30736,0.330233 -16.14662,-0.684054 -6.39727,-1.344518 -10.78802,-4.599668 -13.07782,-9.647509 -0.3541,-0.801993 -0.73179,-1.792691 -0.8026,-2.217276 -0.21246,-0.919934 -0.80262,-1.226579 -0.94426,-0.471761 -0.0709,0.283056 -0.18884,1.108638 -0.25967,1.81628 -0.23605,2.170099 -1.48718,8.067111 -2.10094,9.859802 -0.89704,2.594685 -2.00653,4.505316 -3.56453,6.062127 -1.69965,1.698339 -2.97438,2.476745 -5.45302,3.325914 -1.62883,0.566113 -2.24259,0.660465 -4.86287,0.660465 -1.67604,0.02359 -3.02159,0.09435 -3.02159,0.165116 0,0.400997 6.18482,6.06213 7.24709,6.628243 1.20392,0.660462 1.20392,0.660462 9.77295,-3.656147 8.97035,-4.48173 12.01554,-5.755485 15.3204,-6.439538 6.1376,-1.226578 11.63785,1.651163 11.63785,6.132891 0,2.45316 -1.39277,4.009973 -5.35861,6.014949 -4.01305,2.052164 -7.6956,3.042862 -12.18078,3.25515 -4.88648,0.235886 -11.09489,-0.801991 -15.6745,-2.618268 -1.48718,-0.589703 -2.78552,-1.085047 -2.90355,-1.085047 -0.0945,0 -1.15671,0.424584 -2.33701,0.919929 -7.50676,3.25515 -15.74532,4.646843 -21.64686,3.679735 z m 8.68708,-0.707642 c 3.37568,-0.283056 8.54542,-1.721928 12.93617,-3.585385 1.58161,-0.684052 1.58161,-0.684052 0.35409,-1.486043 -0.68457,-0.424584 -2.80912,-2.335222 -4.72123,-4.269439 -3.47011,-3.491029 -3.47011,-3.491029 -10.41031,-5.260132 -16.50072,-4.175084 -19.121,-4.198672 -21.103913,-0.212293 -0.566549,1.155815 -0.660979,1.651164 -0.660979,3.25515 0,2.311624 0.401313,3.184384 2.242592,5.118611 3.23404,3.373089 9.27722,6.038536 14.89549,6.533881 2.17176,0.188707 3.11601,0.188707 6.46809,-0.09435 z m 38.54886,-1.438872 c 2.45503,-0.448174 4.76845,-1.250165 7.48315,-2.641858 3.58814,-1.839867 4.50879,-2.995685 4.31993,-5.354486 -0.14164,-1.603988 -0.99146,-2.924919 -2.64389,-4.057145 -2.92716,-2.004983 -7.03463,-2.05216 -12.29881,-0.165116 -1.93571,0.707641 -18.53083,8.845516 -18.53083,9.081394 0,0.377415 5.26417,2.193692 7.88445,2.712626 5.24057,1.061467 9.5369,1.179406 13.786,0.424585 z M 137.03938,41.58552 c 2.90356,-1.910633 5.71269,-4.741198 6.58612,-6.65183 0.42491,-0.967109 0.59015,-5.802658 0.25967,-7.500998 -0.63736,-3.019269 -2.26619,-5.142193 -4.88647,-6.345183 -1.62884,-0.754817 -5.47664,-0.778405 -7.48316,-0.02359 -4.2019,1.580399 -5.71269,3.821263 -5.99597,8.91628 -0.14163,2.736214 0.25967,4.929902 1.27474,6.769769 1.46358,2.689037 5.71269,5.661132 8.33297,5.826248 0.21246,0.02359 1.06228,-0.424585 1.9121,-0.990696 z"
       id="path1-8"
       style="stroke-width:0.235971"
       inkscape:export-filename="path1-8.svg"
       inkscape:export-xdpi="96"
       inkscape:export-ydpi="96" /></g></svg>
